<svg width="160" height="39" viewBox="0 0 160 39" fill="none" xmlns="http://www.w3.org/2000/svg">
<path d="M12.8158 24.398C12.945 24.4012 13.1007 24.4092 13.2528 24.3975C13.0332 24.2077 12.8206 24.01 12.6244 23.7947C12.3182 23.4544 12.0433 23.0871 11.8004 22.699C11.4081 22.9313 10.996 23.0748 10.5894 23.0817C10.7781 23.4284 10.9865 23.7686 11.222 24.0897C11.7403 24.2519 12.2783 24.3863 12.8158 24.398Z" fill="#12BB8B"/>
<path d="M11.8812 6.72999C12.1454 6.65025 12.4112 6.57582 12.6813 6.51575C13.3235 6.36636 13.9774 6.27705 14.634 6.24249C14.6398 6.22601 14.6451 6.20847 14.651 6.19199C14.8998 5.53862 15.2793 4.91184 15.7695 4.4137C15.021 4.385 14.2698 4.42061 13.5261 4.51684C12.7361 4.94586 11.9604 5.57371 11.8849 6.36849C11.8748 6.48438 11.8743 6.60559 11.8812 6.72999Z" fill="#12BB8B"/>
<path d="M12.9096 13.5364C12.6715 13.6874 12.4397 13.8484 12.2206 14.0281C12.1553 14.0808 12.0973 14.1419 12.034 14.1967C11.9011 14.6517 12.0085 15.0547 12.2648 15.3917C12.4535 15.1727 12.6534 14.9622 12.874 14.7735C12.9293 14.7267 12.9888 14.6863 13.0452 14.6416C12.9022 14.3365 12.8251 14.0127 12.8735 13.6842C12.8809 13.6315 12.8985 13.5853 12.9096 13.5364Z" fill="#12BB8B"/>
<path d="M15.4654 26.9658C15.9753 26.8207 16.4468 26.491 16.7286 26.0976C15.6526 25.8839 14.6292 25.4326 13.744 24.7877C13.6303 24.8536 13.5101 24.9158 13.3767 24.9695C12.9875 25.1258 12.5638 25.1684 12.1343 25.1444C12.9647 25.9615 13.9615 26.6123 15.0492 27.0508C15.1901 27.0306 15.3288 27.0041 15.4654 26.9658Z" fill="#12BB8B"/>
<path d="M16.901 25.7956C17.1094 25.3049 16.9504 24.6303 16.2769 24.2273C15.7335 24.0583 15.2131 23.809 14.7351 23.4916C14.6187 23.928 14.3837 24.3028 14.0175 24.5952C14.8787 25.197 15.867 25.6128 16.901 25.7956Z" fill="#12BB8B"/>
<path d="M19.0418 9.27382C19.6712 9.52953 20.2735 9.8517 20.836 10.2393C21.0252 9.7172 21.3692 9.19408 21.7972 8.73369C20.9524 8.14253 20.0269 7.6747 19.055 7.33765C18.8233 7.95646 18.7914 8.66299 19.0418 9.27382Z" fill="#12BB8B"/>
<path d="M10.965 7.58435C10.2181 7.89801 9.50091 8.28716 8.82043 8.73C9.16014 9.33924 9.75078 9.7454 10.5014 9.89001C10.9942 9.61143 11.5035 9.37327 12.0245 9.17603C11.4871 8.81931 11.0968 8.22974 10.965 7.58435Z" fill="#12BB8B"/>
<path d="M25.0193 11.3918C25.2085 11.672 25.3893 11.958 25.5536 12.2541C25.889 12.841 26.1617 13.4668 26.3696 14.1138C26.9337 13.9085 27.5264 13.8208 28.0857 13.9016C27.9735 13.5077 27.8481 13.1212 27.6896 12.7331C27.5232 12.3254 27.3297 11.9288 27.1266 11.5465C26.4525 10.865 25.6859 10.9474 25.0193 11.3918Z" fill="#12BB8B"/>
<path d="M20.6323 25.4761C20.5457 24.9068 20.0954 24.5447 19.526 24.2986C19.4149 24.3289 19.3043 24.3592 19.1922 24.382C18.744 24.4772 18.2826 24.5091 17.8211 24.4916C17.9689 24.9413 17.8349 25.4309 17.5569 25.8834C18.5973 25.9727 19.651 25.8307 20.6323 25.4761Z" fill="#12BB8B"/>
<path d="M25.9199 21.026C25.7838 21.3136 25.6386 21.597 25.4738 21.8702C25.3505 22.076 25.217 22.2758 25.0778 22.471C25.2256 22.589 25.3585 22.7304 25.4658 22.9079C25.7694 23.4066 25.7742 23.8713 25.6221 24.3067C25.9071 23.9957 26.1777 23.6708 26.4254 23.3279C26.4233 23.2934 26.4584 23.2301 26.5509 23.1249C27.183 22.4141 26.5052 21.4997 25.9199 21.026Z" fill="#12BB8B"/>
<path d="M26.4308 17.0727C26.4356 16.2689 26.3277 15.4709 26.1188 14.6985C25.4144 14.9351 24.8461 15.4911 24.7195 16.3417C24.7466 16.5852 24.7653 16.8298 24.7679 17.0759C24.77 17.4076 24.7498 17.7399 24.71 18.0706C25.2166 17.6756 25.8253 17.3396 26.4282 17.1498C26.4282 17.1243 26.4308 17.0982 26.4308 17.0727Z" fill="#12BB8B"/>
<path d="M13.6239 24.3012C13.7292 24.2454 13.8137 24.1603 13.8536 24.0258C13.9705 23.625 13.9551 23.247 13.9083 22.8377C13.9083 22.835 13.9099 22.8318 13.9099 22.8291C13.8764 22.7962 13.8398 22.7664 13.8068 22.7324C13.4995 22.414 13.2279 22.0663 12.9913 21.6862C12.7127 22.0035 12.3943 22.297 12.0546 22.5352C12.2895 22.9084 12.5564 23.2619 12.852 23.5862C13.0902 23.8451 13.3507 24.0811 13.6239 24.3012Z" fill="#12BB8B"/>
<path d="M16.5899 21.3965C16.6324 21.4103 16.6755 21.4188 16.7185 21.4305C16.7313 21.2647 16.6297 21.1121 16.5037 20.9808C15.853 20.7841 15.1088 20.422 14.7823 19.8256C15.1343 20.5725 15.8073 21.152 16.5899 21.3965Z" fill="#12BB8B"/>
<path d="M20.6462 19.5023C20.4468 19.9143 20.1693 20.2827 19.8381 20.598C19.8833 20.6698 19.9221 20.7511 19.9466 20.851C19.9774 20.9749 19.9811 21.0982 19.9726 21.2189C20.4734 20.8377 20.8939 20.3439 21.1911 19.7777C21.0758 19.5517 20.8769 19.4837 20.6462 19.5023Z" fill="#12BB8B"/>
<path d="M18.4948 15.1042C18.6963 15.2276 18.8914 15.3631 19.0684 15.5221C19.0721 15.5253 19.0753 15.529 19.0791 15.5327C19.2268 15.3211 19.4172 15.1351 19.6399 14.9862C19.3353 14.6837 18.9897 14.4221 18.6155 14.2137C18.498 14.5067 18.4475 14.8033 18.4948 15.1042Z" fill="#12BB8B"/>
<path d="M19.0784 21.7383C19.0944 21.6075 19.0859 21.4709 19.0519 21.364C19.0343 21.3093 19.0035 21.2689 18.9748 21.2247C18.4809 21.4889 17.9147 21.607 17.3581 21.574C17.2582 21.7096 17.1375 21.8393 17.0083 21.961C17.692 22.0966 18.4277 22.02 19.0784 21.7383Z" fill="#12BB8B"/>
<path d="M16.4649 21.8079C16.5516 21.7394 16.6244 21.6718 16.6654 21.6011C16.6919 21.5549 16.7058 21.5097 16.7132 21.4656C16.6686 21.4528 16.6234 21.4422 16.5792 21.4278C15.7919 21.1705 15.1242 20.5767 14.7823 19.826C15.1136 20.6586 15.5904 21.4837 16.4649 21.8079Z" fill="#12BB8B"/>
<path d="M17.7403 14.7432C17.8318 14.4757 17.9695 14.219 18.1449 13.9872C17.9423 13.9032 17.735 13.8309 17.5218 13.7777C17.0104 13.6469 16.4777 13.6124 15.953 13.6597C15.9679 13.9829 16.0854 14.2785 16.2619 14.5496C16.6106 14.5257 16.9642 14.547 17.3113 14.6209C17.457 14.6522 17.5994 14.6948 17.7403 14.7432Z" fill="#12BB8B"/>
<path d="M21.3668 15.9729L21.3524 15.9367L21.3269 15.8782L21.2892 15.7964C21.2493 15.7049 21.203 15.6161 21.1568 15.5274C20.8623 15.3721 20.5093 15.3429 20.2249 15.4386C20.539 15.8772 20.7772 16.3673 20.9154 16.892C21.144 16.7825 21.3753 16.7166 21.5964 16.7118C21.5529 16.5178 21.5013 16.3285 21.4231 16.1169L21.3668 15.9729Z" fill="#12BB8B"/>
<path d="M18.0025 21.0345C17.8659 21.0696 17.7282 21.094 17.5868 21.1057C17.5538 21.2525 17.4831 21.3955 17.3875 21.5337C17.927 21.5528 18.4709 21.4295 18.9435 21.1685C18.7931 20.985 18.5926 20.8723 18.3465 20.9627C18.2673 20.9877 18.1386 21.0127 18.0025 21.0345Z" fill="#12BB8B"/>
<path d="M19.3123 20.27C19.5015 20.2998 19.6679 20.3832 19.7897 20.5353C20.09 20.2408 20.3404 19.8995 20.5254 19.5231C20.2686 19.5693 19.9933 19.6857 19.7721 19.7735C19.754 19.7809 19.7344 19.7868 19.7152 19.7931C19.5972 19.9638 19.4627 20.1233 19.3123 20.27Z" fill="#12BB8B"/>
<path d="M19.9891 16.7479C20.046 16.8681 20.1108 17.0361 20.1555 17.1908C20.1736 17.2519 20.1794 17.3168 20.1932 17.379C20.3804 17.2142 20.5845 17.0653 20.7956 16.9499C20.6536 16.4236 20.4064 15.9345 20.0821 15.5007C19.8254 15.6405 19.6659 15.9069 19.7344 16.2976C19.7796 16.3667 19.8238 16.4364 19.8631 16.5092L19.8955 16.565C19.8971 16.5666 19.9147 16.6012 19.9035 16.5762L19.9205 16.6108L19.9891 16.7479Z" fill="#12BB8B"/>
<path d="M20.8807 17.4215C20.5809 17.4811 20.4161 17.7182 20.2645 17.9903C20.2683 18.2684 20.2348 18.547 20.1625 18.8207C20.3788 18.7522 20.6043 18.6958 20.8243 18.6666C20.9137 18.2567 20.9317 17.8362 20.8807 17.4215Z" fill="#12BB8B"/>
<path d="M14.0481 14.2583C14.2081 14.5491 14.4261 14.8049 14.6627 15.0409C14.6839 15.0292 14.7047 15.0164 14.7259 15.0037L14.7812 14.9723C14.7493 14.9845 14.8126 14.9564 14.8232 14.9505L14.962 14.883C15.0417 14.8469 15.1236 14.8128 15.2092 14.7793C15.0858 14.4657 15.0422 14.1345 15.1156 13.8086C14.7461 13.9128 14.3873 14.0675 14.0481 14.2583Z" fill="#12BB8B"/>
<path d="M40.2041 12.2457C40.1393 11.6954 40.051 11.1479 39.9463 10.604C39.6869 10.7156 39.453 10.8921 39.2812 11.0952C39.3849 11.6056 39.4732 12.1175 39.5316 12.6322C39.7416 12.4812 39.9686 12.3509 40.2041 12.2457Z" fill="#12BB8B"/>
<path d="M40.3518 15.1626C40.0876 15.2104 39.8207 15.3205 39.5724 15.4789C39.5363 16.0063 39.4831 16.531 39.4087 17.0525C39.6804 16.9021 39.9759 16.7745 40.2742 16.6942C40.3172 16.1849 40.3449 15.674 40.3518 15.1626Z" fill="#12BB8B"/>
<path d="M40.2541 12.7124C39.9856 12.7416 39.7395 12.8432 39.5619 13.0277C39.6172 13.6683 39.6432 14.3115 39.6103 14.9596C39.6092 14.9707 39.6081 14.9814 39.6076 14.992C39.8405 14.8463 40.0935 14.714 40.3519 14.6124C40.346 13.9777 40.3147 13.344 40.2541 12.7124Z" fill="#12BB8B"/>
<path d="M40.2211 17.3115C39.9213 17.2918 39.6108 17.3599 39.337 17.5289C39.2222 18.2243 39.0771 18.9128 38.8969 19.5911C39.219 19.4476 39.5582 19.3397 39.9016 19.3056C40.0356 18.6454 40.1456 17.9808 40.2211 17.3115Z" fill="#12BB8B"/>
<path d="M40.3806 17.3226C40.3163 17.9834 40.2163 18.64 40.0946 19.2923C40.1999 19.2912 40.3062 19.2955 40.412 19.3109C40.7474 19.3603 41.0106 19.5039 41.2238 19.7032C41.3014 19.204 41.3609 18.7038 41.4066 18.203C41.3891 18.1977 41.3705 18.1934 41.3652 18.178C41.2014 17.6868 40.816 17.4024 40.3806 17.3226Z" fill="#12BB8B"/>
<path d="M40.4752 14.5662C40.8054 14.4513 41.1408 14.3929 41.455 14.4311C41.4247 13.9463 41.3832 13.4599 41.3322 12.9718C41.069 12.7842 40.7054 12.6874 40.354 12.7034C40.421 13.3227 40.4603 13.9442 40.4752 14.5662Z" fill="#12BB8B"/>
<path d="M40.0138 10.5784C40.1254 11.1175 40.2206 11.6597 40.2924 12.2057C40.5959 12.0802 40.908 12.0064 41.2099 12.0032C41.1398 11.5231 41.0499 11.05 40.9447 10.5821C40.6608 10.4375 40.3264 10.4588 40.0138 10.5784Z" fill="#12BB8B"/>
<path d="M38.7091 8.86286C38.8612 9.35781 39.0004 9.85381 39.1201 10.3514C39.3306 10.1861 39.5634 10.0388 39.8069 9.92026C39.7048 9.46679 39.5852 9.01757 39.455 8.57153C39.1929 8.58908 38.9425 8.6853 38.7091 8.86286Z" fill="#12BB8B"/>
<path d="M40.4849 15.1372C40.4854 15.6454 40.4647 16.1526 40.4296 16.6598C40.8086 16.5795 41.1797 16.5822 41.4949 16.7135C41.5056 16.3381 41.5072 15.9649 41.5003 15.5928C41.2148 15.2361 40.8586 15.1042 40.4849 15.1372Z" fill="#12BB8B"/>
<path d="M8.61923 8.25419C9.34702 7.79114 10.1152 7.38711 10.9174 7.06601C10.9222 6.82678 10.961 6.58755 11.0472 6.35682C11.2789 5.73642 11.6745 5.21064 12.1577 4.76514C11.2571 4.97566 10.3486 5.29038 9.54532 5.66411C9.47196 5.69814 9.40338 5.73482 9.33108 5.76938C8.80583 6.23136 8.44964 6.83209 8.5028 7.64388C8.51716 7.86185 8.56128 8.06227 8.61923 8.25419Z" fill="#12BB8B"/>
<path d="M39.7434 20.0376C39.3867 19.9887 39.0406 20.0722 38.7142 20.2146C38.5329 20.8223 38.3304 21.422 38.0991 22.0094C38.4686 21.8701 38.8636 21.776 39.2517 21.7771C39.4372 21.2035 39.6036 20.6235 39.7434 20.0376Z" fill="#12BB8B"/>
<path d="M39.9362 20.0791C39.807 20.6559 39.6517 21.2274 39.4779 21.7936C39.6225 21.8085 39.7676 21.834 39.9075 21.8824C40.2248 21.9924 40.4667 22.1737 40.648 22.4002C40.7543 22.0163 40.8527 21.6304 40.9393 21.2412C40.7682 20.7479 40.4609 20.2354 39.9362 20.0791Z" fill="#12BB8B"/>
<path d="M39.8649 9.89208C40.1419 9.76343 40.4295 9.67518 40.7139 9.64647C40.6352 9.37481 40.5539 9.09943 40.4699 8.82192C40.1381 8.65127 39.8128 8.56196 39.5023 8.57206C39.6358 9.00799 39.7575 9.44818 39.8649 9.89208Z" fill="#12BB8B"/>
<path d="M1.1611 21.2296C1.39023 21.3976 1.63903 21.4964 1.89262 21.5592C1.80915 20.3402 1.88624 19.1126 2.11111 17.9128C1.91867 17.883 1.72781 17.8415 1.54015 17.7783C1.03936 17.6092 0.647553 17.345 0.373766 17.0138C0.196735 17.7958 0.07712 18.5901 0.0175781 19.3907C0.244582 20.0999 0.583758 20.8053 1.1611 21.2296Z" fill="#12BB8B"/>
<path d="M3.01165 26.2551C2.49119 25.0185 2.14829 23.7155 1.98296 22.3859C1.8761 22.3901 1.76924 22.3885 1.66292 22.3779C0.944696 22.3083 0.408819 21.9845 0 21.5247C0.00372137 21.5922 0.00531627 21.6592 0.0101009 21.7267C0.0733642 22.6267 0.208928 23.5135 0.414667 24.3864C0.684732 24.8707 1.00105 25.3375 1.41253 25.6905C1.91385 26.12 2.48056 26.2981 3.01165 26.2551Z" fill="#12BB8B"/>
<path d="M3.59833 13.6885C3.88913 13.1404 4.20385 12.604 4.56323 12.0979C4.63234 12 4.71208 11.9107 4.78385 11.815C4.59247 11.6396 4.42075 11.4376 4.29423 11.1882C4.00024 10.6098 4.02735 10.0857 4.21661 9.59497C3.80354 10.0532 3.41386 10.5322 3.05554 11.0341C3.03002 11.0692 3.00663 11.1064 2.98111 11.142C2.80568 11.9612 2.80621 12.8793 3.38462 13.4902C3.44735 13.5566 3.52018 13.6231 3.59833 13.6885Z" fill="#12BB8B"/>
<path d="M7.9729 9.33923C7.20098 9.92668 6.48754 10.5886 5.85278 11.3217C6.47 11.7773 7.23128 11.915 8.01809 11.756C8.48432 11.3031 8.98246 10.8831 9.51248 10.5104C8.84902 10.318 8.30676 9.8884 7.9729 9.33923Z" fill="#12BB8B"/>
<path d="M14.1534 36.4059C14.0417 36.3697 13.9274 36.3405 13.8163 36.3022C12.6872 35.9147 11.6 35.4101 10.5692 34.8083C10.5362 34.8333 10.5075 34.8589 10.4724 34.8828C9.7409 35.3814 9.04075 35.5723 8.34326 35.5712C9.33368 36.24 10.3874 36.8089 11.4772 37.29C12.5101 37.3633 13.677 37.2251 14.1534 36.4059Z" fill="#12BB8B"/>
<path d="M23.3839 36.931C22.0984 37.1937 20.7859 37.3106 19.4738 37.2893C19.3882 37.6285 19.1857 37.9693 18.8141 38.3122C18.5477 38.5578 18.2553 38.7609 17.9475 38.9342C19.2978 39.0448 20.6545 39.0166 21.9942 38.8443C22.7656 38.5615 23.4573 38.0278 23.419 37.1851C23.4147 37.099 23.3977 37.015 23.3839 36.931Z" fill="#12BB8B"/>
<path d="M38.2418 24.3544C38.514 23.7718 38.7564 23.1758 38.9776 22.5719C38.5804 22.5028 38.1801 22.5645 37.8043 22.716C37.6145 23.1519 37.4157 23.5841 37.1977 24.0057C37.1249 24.1503 37.043 24.289 36.9664 24.4321C37.3869 24.33 37.8197 24.2906 38.2418 24.3544Z" fill="#12BB8B"/>
<path d="M36.5423 27.8903C36.0282 28.6383 35.4663 29.3538 34.8661 30.0354C35.1712 30.4644 35.3424 31.0136 35.336 31.5909C35.9187 30.9726 36.4748 30.3288 36.9942 29.6595C37.0697 29.0976 37.0516 28.4734 36.6858 28.0317C36.6407 27.9769 36.5912 27.9344 36.5423 27.8903Z" fill="#12BB8B"/>
<path d="M38.127 25.2773C38.1132 25.2731 38.0994 25.2731 38.0856 25.2688C37.7868 25.8653 37.4614 26.4485 37.1095 27.0157C37.1744 27.0577 37.2397 27.0949 37.3014 27.1481C37.6682 27.4628 37.857 27.8913 37.9325 28.3522C38.3057 27.7967 38.6491 27.2257 38.9633 26.6425C38.9383 26.0726 38.7294 25.4644 38.127 25.2773Z" fill="#12BB8B"/>
<path d="M11.3198 22.3933C11.408 22.3736 11.491 22.3438 11.5712 22.3098C11.4607 22.1062 11.3575 21.8994 11.2677 21.6862C11.1582 21.4289 11.0747 21.1631 11.0024 20.8936C10.8892 20.9005 10.7738 20.901 10.6542 20.8888C10.324 20.8558 10.012 20.749 9.73022 20.5911C9.7887 20.9749 9.88386 21.3555 10.0072 21.7346C10.3283 22.1365 10.7812 22.5161 11.3198 22.3933Z" fill="#12BB8B"/>
<path d="M14.3084 36.0401C14.3116 36.0284 14.3174 36.0183 14.3201 36.0066C14.512 35.2278 13.8831 34.4729 13.4886 33.8482C12.8204 33.5494 12.175 33.2055 11.5562 32.819C11.5843 33.4325 11.3988 34.022 10.9033 34.5218C11.8719 35.0816 12.8889 35.5579 13.9463 35.9263C14.066 35.9683 14.1882 36.0007 14.3084 36.0401Z" fill="#12BB8B"/>
<path d="M9.54373 34.5553C9.65856 34.4931 9.75903 34.4282 9.8526 34.3618C8.5145 33.4963 7.2907 32.4586 6.2232 31.2736C6.2147 31.2778 6.20778 31.2831 6.19981 31.2874C5.46404 31.6627 4.77878 31.7807 4.13232 31.709C4.17858 31.7658 4.22057 31.8275 4.26789 31.8839C4.95634 32.7175 5.72347 33.4803 6.54111 34.1826C7.48368 34.6052 8.61817 35.0561 9.54373 34.5553Z" fill="#12BB8B"/>
<path d="M27.4271 35.2272C26.9561 34.6844 26.2836 34.3787 25.535 34.4186C25.4787 34.4213 25.4436 34.4096 25.4239 34.3883C25.4144 34.391 25.4064 34.3947 25.3968 34.3979C24.7631 34.6137 24.1145 34.7796 23.4612 34.9146C23.8929 35.2867 24.1959 35.8104 24.2756 36.3617C25.3591 36.0815 26.4122 35.702 27.4271 35.2272Z" fill="#12BB8B"/>
<path d="M18.8971 35.2081C19.2442 35.7727 19.5271 36.3442 19.5186 36.9194C20.7865 36.9428 22.0555 36.8343 23.3011 36.5871C23.0842 35.9151 22.5727 35.3676 21.9008 35.1533C20.9019 35.2581 19.8955 35.2804 18.8971 35.2081Z" fill="#12BB8B"/>
<path d="M18.584 36.8822C18.4862 36.2209 17.8982 35.5989 17.542 35.0492C16.6887 34.9147 15.8493 34.7079 15.0295 34.4357C15.3033 35.0454 15.4208 35.6712 15.1204 36.2942C16.2517 36.6052 17.4139 36.7987 18.584 36.8822Z" fill="#12BB8B"/>
<path d="M5.9348 30.9476C5.85877 30.8588 5.7769 30.7754 5.70194 30.6844C4.72429 29.5021 3.90771 28.1885 3.25647 26.7999C3.08157 26.8626 2.90082 26.9099 2.71634 26.9386C2.1087 27.0333 1.59143 26.928 1.1438 26.6973C1.2145 26.8732 1.28574 27.0503 1.36336 27.2252C1.86096 28.3368 2.47339 29.4075 3.17035 30.4208C3.60947 30.7381 4.08847 30.9859 4.60893 31.0635C5.10706 31.1374 5.55681 31.0885 5.9348 30.9476Z" fill="#12BB8B"/>
<path d="M10.1821 34.0789C10.7647 33.4543 10.6547 32.685 10.2405 31.8955C9.35486 31.2129 8.54201 30.4431 7.81422 29.6C7.60582 30.1731 7.18158 30.668 6.60583 31.0465C7.65579 32.2102 8.86258 33.2299 10.1821 34.0789Z" fill="#12BB8B"/>
<path d="M2.80066 17.168C3.53483 17.2791 4.33067 17.1797 4.88197 16.6986C4.89845 16.6842 4.91599 16.6714 4.93354 16.6587C5.14831 16.025 5.41306 15.4099 5.72619 14.8187C5.04943 15.1106 4.28655 15.1728 3.59437 14.8799C3.2653 15.6188 3.00002 16.3833 2.80066 17.168Z" fill="#12BB8B"/>
<path d="M2.37863 21.5554C2.3797 21.5772 2.38395 21.5985 2.38501 21.6202C3.15587 21.6192 3.89217 21.1902 4.26058 20.4517C4.28025 19.4145 4.4323 18.3805 4.70608 17.3784C4.07133 17.7479 3.34406 17.9627 2.61255 17.9542C2.38129 19.1376 2.29942 20.3502 2.37863 21.5554Z" fill="#12BB8B"/>
<path d="M6.34064 30.7429C7.02165 30.2895 7.30607 29.4426 6.90629 28.4495C6.25292 27.5303 5.69737 26.5458 5.24603 25.4985C5.21094 25.4155 5.18329 25.3268 5.1498 25.2433C4.77447 25.8079 4.26943 26.2964 3.67773 26.608C4.29814 27.9657 5.10142 29.2469 6.04293 30.4038C6.13809 30.5202 6.24229 30.6292 6.34064 30.7429Z" fill="#12BB8B"/>
<path d="M4.85428 24.5108C4.85588 24.5018 4.86491 24.4932 4.8681 24.4853C4.54913 23.5071 4.34233 22.472 4.28013 21.4449C4.27747 21.3981 4.2796 21.3513 4.27747 21.3046C3.76339 21.7995 3.12172 22.1796 2.45825 22.3237C2.61242 23.6437 2.95904 24.9318 3.47472 26.1588C4.10735 25.9387 4.63632 25.3736 4.85428 24.5108Z" fill="#12BB8B"/>
<path d="M39.2589 22.6314C39.2419 22.625 39.2244 22.6256 39.2068 22.6202C38.9958 23.2242 38.7618 23.8201 38.4998 24.4038C38.5864 24.4262 38.6725 24.4496 38.7571 24.4815C39.177 24.642 39.4593 24.9206 39.6433 25.2608C39.664 25.2124 39.6895 25.1651 39.7108 25.1167C39.8724 24.7334 40.0213 24.3448 40.1616 23.952C40.0861 23.3879 39.8421 22.8334 39.2589 22.6314Z" fill="#12BB8B"/>
<path d="M28.5636 35.0284C28.7151 35.3458 28.7885 35.7052 28.7481 36.0975C28.7226 36.3436 28.6412 36.5722 28.5306 36.7875C28.6965 36.7025 28.8618 36.6169 29.0251 36.5265C29.6795 36.1687 30.3142 35.7753 30.9336 35.3596C31.3589 34.8944 31.268 34.1135 30.9224 33.5781C30.1664 34.1103 29.3802 34.5967 28.5636 35.0284Z" fill="#12BB8B"/>
<path d="M27.6274 35.4919C26.5562 35.9927 25.443 36.4016 24.2947 36.7104C24.2841 37.0182 24.2038 37.3266 24.0273 37.6147C23.7811 38.0166 23.4377 38.3728 23.0443 38.6801C23.367 38.62 23.6908 38.5599 24.0097 38.4823C24.8896 38.2665 25.7556 37.9986 26.595 37.6673C26.8614 37.5647 27.1325 37.4489 27.4026 37.3287C27.8396 36.8662 28.0884 36.2745 27.7146 35.6243C27.688 35.5775 27.6562 35.5361 27.6274 35.4919Z" fill="#12BB8B"/>
<path d="M18.4451 37.6488C18.518 37.5175 18.561 37.3878 18.5828 37.2591C17.3404 37.1783 16.1071 36.971 14.9067 36.6382C14.8689 36.6892 14.8328 36.7392 14.7886 36.7902C14.2958 37.3522 13.7201 37.7158 13.0959 37.929C13.1459 37.946 13.1948 37.9672 13.2453 37.9843C14.2847 38.3298 15.3538 38.5797 16.4351 38.7514C17.2618 38.6206 18.081 38.3043 18.4451 37.6488Z" fill="#12BB8B"/>
<path d="M31.7766 32.9455C31.892 33.1321 31.9882 33.3325 32.0435 33.5569C32.1355 33.9343 32.1073 34.2788 32.0073 34.5941C32.4704 34.2459 32.926 33.8859 33.3614 33.5042C33.6655 33.2352 33.9637 32.9577 34.2588 32.6754C34.2625 32.6382 34.2699 32.5978 34.2875 32.551C34.4666 32.0502 34.397 31.3639 34.1376 30.8291C33.4013 31.5899 32.6113 32.2959 31.7766 32.9455Z" fill="#12BB8B"/>
<path d="M4.99636 12.4045C4.63486 12.9091 4.31961 13.4433 4.02881 13.9909C4.68058 14.3763 5.52746 14.5773 6.11862 14.127C6.2494 13.9138 6.37912 13.7006 6.52266 13.496C6.78528 13.1222 7.0782 12.7676 7.38442 12.4231C6.65344 12.572 5.85281 12.4917 5.21114 12.1276C5.14097 12.2217 5.06388 12.3094 4.99636 12.4045Z" fill="#12BB8B"/>
<path d="M29.2845 32.5463C28.6976 32.9051 28.0968 33.2379 27.4791 33.5372C27.3148 33.6196 27.1474 33.6956 26.9794 33.7717C27.5557 33.9301 28.0719 34.2719 28.3983 34.744C29.2042 34.3176 29.982 33.8418 30.7305 33.3208C30.3477 32.8753 29.8517 32.6053 29.2845 32.5463Z" fill="#12BB8B"/>
<path d="M1.98 16.951C2.0842 16.9924 2.19371 17.0286 2.30589 17.0616C2.51322 16.228 2.79126 15.4135 3.13894 14.6283C2.40689 14.1195 2.08367 13.4231 2.02838 12.6608C1.55098 13.5247 1.15014 14.4311 0.834351 15.3667C0.858805 16.0509 1.22244 16.649 1.98 16.951Z" fill="#12BB8B"/>
<path d="M34.7606 27.7558C34.3518 28.2597 33.9186 28.7414 33.4667 29.2044C33.9467 29.2422 34.3625 29.466 34.6798 29.8068C35.2641 29.1454 35.8117 28.4516 36.3141 27.7265C35.8505 27.4703 35.2822 27.5516 34.7606 27.7558Z" fill="#12BB8B"/>
<path d="M33.9824 30.5654C33.6523 30.0885 33.1344 29.8312 32.4843 30.1502C32.118 30.4809 31.7443 30.8025 31.3562 31.105C31.0117 31.3793 30.6565 31.6382 30.295 31.8886C30.8027 32.0146 31.2631 32.2926 31.5954 32.6892C31.816 32.5191 32.0377 32.3511 32.2509 32.173C32.8575 31.669 33.4338 31.1316 33.9824 30.5654Z" fill="#12BB8B"/>
<path d="M5.4644 10.9671C6.14701 10.1867 6.91574 9.4844 7.74826 8.86666C7.51435 8.20213 7.56007 7.43552 8.01354 6.72687C8.11189 6.57376 8.21769 6.4281 8.33039 6.29041C7.90084 6.53336 7.48617 6.79226 7.07469 7.07668C6.58135 7.41745 6.10926 7.78852 5.65579 8.18192C5.03538 8.96873 4.57287 9.84697 5.30757 10.7933C5.35701 10.8565 5.41177 10.9097 5.4644 10.9671Z" fill="#12BB8B"/>
<path d="M35.5121 26.7701C35.9757 26.684 36.443 26.6946 36.8672 26.8828C37.2074 26.3411 37.5227 25.7856 37.8161 25.2167C37.3435 25.1423 36.8704 25.2204 36.4185 25.3943C36.1336 25.8648 35.8316 26.3241 35.5121 26.7701Z" fill="#12BB8B"/>
<path d="M18.6112 6.71352C19.0014 6.12661 19.5341 5.63326 20.1396 5.33236C19.4666 5.06814 18.7717 4.85709 18.0636 4.70238C17.5719 4.59393 17.0727 4.51685 16.5708 4.46741C16.0344 4.86134 15.6282 5.53331 15.4268 6.22921C16.5038 6.24516 17.5777 6.40943 18.6112 6.71352Z" fill="#12BB8B"/>
<path d="M12.6803 21.254C12.692 21.2359 12.7085 21.22 12.7212 21.2024C12.7021 21.1641 12.6808 21.128 12.6622 21.0892C12.5405 20.8324 12.4421 20.5464 12.3698 20.2513C12.078 20.5549 11.7143 20.7665 11.2954 20.8521C11.4251 21.3066 11.6064 21.7484 11.8355 22.1668C12.18 21.9398 12.4501 21.5985 12.6803 21.254Z" fill="#12BB8B"/>
<path d="M24.6844 11.6555C24.2214 12.0654 23.8338 12.6263 23.5994 13.1728C23.6286 13.2212 23.6642 13.2658 23.6929 13.3152C23.8662 13.6161 24.0209 13.9149 24.1565 14.2243C24.2841 14.5125 24.3963 14.8293 24.4866 15.1403C24.5084 15.2185 24.5255 15.2982 24.5457 15.3774C24.9295 14.917 25.4335 14.538 25.9885 14.2738C25.7854 13.6449 25.518 13.0351 25.1863 12.4593C25.0321 12.1834 24.862 11.9171 24.6844 11.6555Z" fill="#12BB8B"/>
<path d="M26.4048 17.7032C25.744 17.7532 25.0561 18.1083 24.6127 18.7C24.6047 18.7096 24.5962 18.7192 24.5882 18.7287C24.4819 19.2338 24.3267 19.7266 24.1183 20.2024C24.6999 19.8872 25.3384 19.7128 25.9582 19.91C26.1964 19.1955 26.349 18.4534 26.4048 17.7032Z" fill="#12BB8B"/>
<path d="M11.9921 19.4125C12.0362 19.3019 12.1298 19.2073 12.2431 19.1376C12.2446 18.8405 12.2739 18.5438 12.3334 18.2504C11.9693 18.3801 11.5503 18.479 11.1421 18.4896C11.107 18.7325 11.082 18.9771 11.0788 19.2227C11.0708 19.4944 11.0926 19.7628 11.1266 20.0297C11.4828 20.0451 11.8087 19.8782 11.9921 19.4125Z" fill="#12BB8B"/>
<path d="M25.1505 21.6772C25.3185 21.396 25.4668 21.1036 25.6029 20.8059C25.0574 20.4789 24.4477 20.3938 23.8799 20.6985C23.8491 20.7559 23.8278 20.8181 23.7959 20.8744C23.5444 21.3215 23.2451 21.7405 22.9065 22.1259C23.537 22.0004 24.2201 22.002 24.7635 22.2684C24.8996 22.0759 25.0309 21.8797 25.1505 21.6772Z" fill="#12BB8B"/>
<path d="M21.4351 24.5718C21.5037 24.7334 21.5361 24.9009 21.5431 25.0699C21.5952 25.0418 21.6489 25.0189 21.6999 24.9907C22.6052 24.5022 23.4213 23.8541 24.1081 23.0907C23.4888 22.7063 22.7057 22.7409 21.9923 23.0009C21.6802 23.2539 21.3495 23.4852 20.9981 23.6856C20.9264 23.726 20.8445 23.7712 20.7664 23.8126C21.0497 23.9854 21.2873 24.2193 21.4351 24.5718Z" fill="#12BB8B"/>
<path d="M17.1661 12.6295C17.1066 12.655 17.0465 12.6736 16.987 12.6811C16.5048 12.7353 16.0407 12.8326 15.9636 13.385C15.9609 13.4052 15.9615 13.4238 15.9594 13.4434C16.5016 13.4046 17.0492 13.4477 17.5723 13.5891C17.8115 13.6524 18.0423 13.7406 18.2677 13.8406C18.4638 13.6141 18.6919 13.4163 18.9439 13.2664C18.5819 13.0639 18.2012 12.8911 17.8004 12.7731C17.593 12.7119 17.3799 12.6673 17.1661 12.6295Z" fill="#12BB8B"/>
<path d="M19.561 13.6661C19.2133 13.6055 18.871 13.6841 18.6838 14.0478C19.0889 14.278 19.4584 14.5672 19.7811 14.9016C20.0182 14.7655 20.2782 14.6639 20.5466 14.6118C20.46 14.505 20.3787 14.3939 20.2851 14.2929C20.0645 14.0616 19.8183 13.8575 19.561 13.6661Z" fill="#12BB8B"/>
<path d="M12.4426 15.5943C12.6787 15.8266 12.987 16.018 13.3278 16.1653C13.449 16.0175 13.5766 15.875 13.7159 15.7421C13.7424 15.7166 13.7728 15.6942 13.8004 15.6693C13.5713 15.4385 13.3432 15.1674 13.1678 14.8718C13.1274 14.9048 13.0838 14.9351 13.045 14.9691C12.8254 15.16 12.6287 15.3726 12.4426 15.5943Z" fill="#12BB8B"/>
<path d="M14.34 12.8426C13.9525 13.0414 13.7111 13.3455 13.8706 13.8495C13.8913 13.9149 13.9238 13.9734 13.9504 14.0356C14.305 13.8437 14.6803 13.6879 15.0763 13.5816C15.1151 13.5709 15.1556 13.5678 15.1949 13.5582C15.2332 13.4689 15.28 13.3801 15.339 13.2934C15.5426 12.9952 15.8036 12.7475 16.0981 12.5481C15.676 12.5534 15.2534 12.5943 14.8403 12.6954C14.6787 12.7326 14.5096 12.7852 14.34 12.8426Z" fill="#12BB8B"/>
<path d="M11.3231 17.6794C11.7298 17.7522 12.1424 17.6911 12.5363 17.5555C12.6123 17.3487 12.6984 17.1456 12.8026 16.95C12.4842 16.8405 12.1317 16.69 11.8276 16.4811C11.615 16.8607 11.447 17.2631 11.3231 17.6794Z" fill="#12BB8B"/>
<path d="M22.2128 9.03943C21.7673 9.57265 21.4903 10.2276 21.5775 10.8081C22.1506 11.2909 22.6732 11.8342 23.1187 12.4402C23.4302 11.9506 23.8327 11.4854 24.2835 11.1021C23.6865 10.3281 22.9885 9.63325 22.2128 9.03943Z" fill="#12BB8B"/>
<path d="M24.6128 23.5415C24.5469 23.4554 24.473 23.3852 24.4001 23.3151C23.6777 24.1157 22.8191 24.7935 21.8686 25.3007C21.7511 25.3655 21.6288 25.4224 21.5081 25.4809C21.4406 25.8211 21.2859 26.1492 21.0956 26.424C20.749 26.9264 20.2572 27.2975 19.7107 27.5856C19.7272 27.5829 19.7437 27.5824 19.7596 27.5798C20.2572 27.4989 20.7431 27.3793 21.2264 27.2172L21.6128 27.0747L21.9111 26.953C22.1753 26.8419 22.3635 26.7472 22.5884 26.6329C23.003 26.4197 23.4034 26.1768 23.7888 25.9099C24.3566 25.2837 25.2896 24.4283 24.6128 23.5415Z" fill="#12BB8B"/>
<path d="M26.5161 14.6029C26.7266 15.3998 26.8356 16.2233 26.8276 17.0473C27.4592 16.9234 28.0573 16.9909 28.4953 17.3769C28.4991 17.2844 28.507 17.1919 28.5086 17.0994C28.5209 16.3891 28.4603 15.6768 28.3353 14.9755C27.7968 14.621 27.1323 14.5029 26.5161 14.6029Z" fill="#12BB8B"/>
<path d="M27.5471 21.3816C27.8666 20.6708 28.109 19.9249 28.2717 19.1605C28.2526 19.1472 28.2334 19.1333 28.2281 19.1052C28.0527 18.2296 27.4711 17.7974 26.8002 17.715C26.739 18.5156 26.5716 19.3072 26.3105 20.0663C26.3573 20.0935 26.4046 20.119 26.4509 20.1509C26.907 20.4651 27.3329 20.8696 27.5471 21.3816Z" fill="#12BB8B"/>
<path d="M19.2516 6.92138C20.2691 7.28448 21.2367 7.78473 22.1149 8.41524C22.6013 7.96868 23.1606 7.61089 23.7135 7.41419C23.5785 7.30415 23.4434 7.19463 23.3036 7.09096C22.6593 6.61038 21.9703 6.19146 21.251 5.83155C20.3919 5.69173 19.6689 6.18933 19.2516 6.92138Z" fill="#12BB8B"/>
<path d="M24.6212 10.8379C25.1507 10.4605 25.728 10.2154 26.3006 10.1883C25.7711 9.42807 25.1602 8.72313 24.4851 8.08572C23.8695 7.84702 23.1103 8.16759 22.5181 8.71622C23.3059 9.33078 24.0151 10.0453 24.6212 10.8379Z" fill="#12BB8B"/>
<path d="M11.0525 17.6129C11.188 17.1594 11.3725 16.7219 11.6086 16.312C11.3964 16.1249 11.2279 15.9016 11.1492 15.632C11.1078 15.4885 11.0881 15.3513 11.0828 15.2163C10.8893 15.4731 10.716 15.7447 10.5586 16.0265C10.3624 16.6038 10.3029 17.3327 10.9903 17.5975C11.0105 17.6054 11.0318 17.606 11.0525 17.6129Z" fill="#12BB8B"/>
<path d="M12.7901 6.991C12.5089 7.05533 12.2314 7.13507 11.9565 7.22172C12.141 7.99471 12.6519 8.72675 13.486 8.72675C13.52 8.72675 13.5493 8.72994 13.5769 8.73473C13.9172 8.66881 14.2606 8.62256 14.6067 8.59438C14.3648 8.06222 14.3563 7.36048 14.4929 6.73157C13.9204 6.77357 13.3505 6.85809 12.7901 6.991Z" fill="#12BB8B"/>
<path d="M16.0184 8.58164C16.6734 8.62577 17.323 8.73688 17.9583 8.91125C17.9307 8.30413 18.0838 7.68692 18.3724 7.12446C17.3799 6.84748 16.3512 6.70394 15.322 6.70288C15.196 7.53221 15.3863 8.30573 16.0184 8.58164Z" fill="#12BB8B"/>
<path d="M21.5865 18.724C21.6433 18.4816 21.6816 18.2339 21.6976 17.9829C21.5625 17.6948 21.3408 17.3997 21.0033 17.4003C21.05 17.8197 21.0267 18.2418 20.9363 18.6528C21.1697 18.6326 21.3924 18.6506 21.5865 18.724Z" fill="#12BB8B"/>
<path d="M10.1479 18.27C10.0091 18.1886 9.90492 18.0908 9.8156 17.9877C9.74064 18.3311 9.68961 18.6793 9.66675 19.0323C9.90864 19.4534 10.3685 19.8409 10.8299 19.9791C10.8028 19.7261 10.7863 19.473 10.7927 19.2178C10.797 18.9706 10.822 18.7245 10.8576 18.4794C10.6045 18.4566 10.3616 18.3954 10.1479 18.27Z" fill="#12BB8B"/>
<path d="M20.5427 26.2774C20.5948 26.1211 20.6256 25.9765 20.64 25.8409C19.5831 26.1993 18.4476 26.3226 17.3397 26.1939C17.0935 26.5097 16.79 26.7968 16.4806 27.0222C16.303 27.1514 16.1153 27.2593 15.9224 27.3545C16.1999 27.4332 16.4811 27.5028 16.7671 27.5533C17.1759 27.6251 17.5911 27.6628 18.0074 27.6793C18.0318 27.6671 18.0552 27.6564 18.0749 27.6517C18.8968 27.456 20.2354 27.1955 20.5427 26.2774Z" fill="#12BB8B"/>
<path d="M34.3859 3.34518C34.1812 3.53284 34.1419 3.95867 34.3109 4.38503C34.5071 4.88104 34.9096 5.18672 35.2099 5.06764C35.2099 5.06764 35.2115 5.06658 35.2126 5.06604C36.0308 5.89272 37.8898 6.75129 38.1456 7.18138C38.2965 7.60455 38.4438 8.02932 38.5799 8.45462C38.8064 8.28875 39.0456 8.15159 39.2955 8.05218C39.2274 7.83687 39.1461 7.62635 39.0716 7.41317C39.0812 7.40944 39.0897 7.40679 39.0988 7.40306C39.1764 7.61518 39.2598 7.82464 39.3311 8.03942C39.6017 7.93575 39.8834 7.87781 40.1721 7.87515C40.0142 7.39881 39.8441 6.92567 39.6575 6.46581C39.6575 6.46368 39.658 6.46209 39.658 6.45996C39.6995 5.35046 39.5076 3.61046 39.0015 2.4882C39.2125 2.26757 39.1344 1.79549 38.808 1.40262C38.4773 1.0039 38.019 0.839098 37.7654 1.01826C37.4826 0.840162 37.1365 0.648777 36.6751 0.345751C35.4284 -0.471356 33.6416 0.170847 34.1238 2.1554C34.2546 2.6934 34.3312 3.06554 34.3859 3.34518ZM37.9244 1.25217C38.0988 1.10704 38.4342 1.22346 38.674 1.51267C38.9132 1.80134 38.9664 2.15274 38.792 2.29788C38.6171 2.44248 38.2811 2.32605 38.0414 2.03738C37.8016 1.74871 37.75 1.39677 37.9244 1.25217ZM34.6044 3.53816C34.8149 3.45469 35.0983 3.66947 35.236 4.01821C35.3737 4.36696 35.3152 4.7173 35.1041 4.8013C34.8936 4.88476 34.6097 4.66945 34.472 4.32124C34.3338 3.97196 34.3928 3.62162 34.6044 3.53816Z" fill="#12BB8B"/>
<path d="M100.762 2.55535L89.9102 36.166H87.3174L78.0504 9.90168L68.8315 36.166H66.2387L55.3392 2.55535H59.4685L67.6791 27.9554L76.658 2.55535H79.4429L88.4697 27.9554L96.6803 2.55535H100.762ZM132.836 32.5649C129.763 35.2057 125.874 36.6462 121.552 36.6462C112.813 36.6462 104.363 29.5399 104.363 19.3607C104.363 9.18145 112.813 2.0752 121.552 2.0752C125.826 2.0752 129.667 3.51565 132.692 6.06046L130.243 8.84534C127.89 6.97275 124.865 5.8684 121.84 5.8684C114.974 5.8684 108.492 11.4382 108.492 19.3607C108.492 27.2832 114.974 32.853 121.84 32.853C124.913 32.853 127.986 31.7006 130.339 29.78L132.836 32.5649ZM159.1 2.55535V6.30054H149.785V36.166H145.8V6.30054H136.437V2.55535H159.1Z" fill="#E3FCF2"/>
</svg>
